<?xml version="1.0" standalone="no"?>
<!DOCTYPE svg PUBLIC "-//W3C//DTD SVG 20010904//EN"
 "http://www.w3.org/TR/2001/REC-SVG-20010904/DTD/svg10.dtd">
<svg version="1.0" xmlns="http://www.w3.org/2000/svg"
 width="152.000000pt" height="152.000000pt" viewBox="0 0 152.000000 152.000000"
 preserveAspectRatio="xMidYMid meet">
<metadata>
Created by potrace 1.11, written by Peter Selinger 2001-2013
</metadata>
<g transform="translate(0.000000,152.000000) scale(0.100000,-0.100000)"
fill="#000000" stroke="none">
<path d="M1283 1418 c-93 -93 -93 -94 -93 -144 0 -44 -4 -54 -34 -83 l-34 -33
-52 41 c-188 148 -467 177 -682 71 -86 -43 -138 -82 -202 -150 -114 -124 -168
-260 -170 -430 -1 -124 13 -187 64 -295 129 -269 424 -419 710 -361 142 29
249 87 350 190 108 110 163 231 182 401 9 85 9 112 -5 180 -19 93 -79 221
-133 283 l-37 43 34 35 c29 30 39 34 84 34 l50 0 94 94 95 95 -60 3 -59 3 -5
58 -5 58 -92 -93z m-463 -214 c64 -18 152 -64 194 -100 l29 -26 -40 -40 -41
-41 -34 26 c-19 15 -61 39 -93 54 -54 25 -71 28 -165 28 -101 0 -108 -2 -183
-37 -95 -46 -164 -113 -209 -206 -31 -64 -33 -72 -33 -182 0 -109 2 -119 32
-183 42 -89 121 -168 210 -210 64 -30 74 -32 183 -32 110 0 118 1 183 33 248
121 324 431 160 651 l-26 33 41 41 40 40 26 -29 c74 -85 120 -218 119 -349 -4
-479 -572 -721 -920 -392 -293 277 -194 766 184 907 111 42 226 46 343 14z
m-33 -219 c21 -9 52 -26 70 -38 l32 -22 -35 -36 -36 -37 -44 25 c-39 22 -55
25 -117 21 -61 -3 -79 -8 -119 -35 -143 -100 -123 -322 37 -394 47 -22 133
-24 178 -6 125 53 180 204 116 319 l-27 46 38 37 38 37 31 -53 c58 -102 64
-203 17 -304 -33 -72 -87 -129 -154 -162 -49 -24 -69 -28 -142 -28 -73 0 -93
4 -141 28 -196 96 -250 350 -109 510 89 102 248 141 367 92z m-67 -205 c12 -8
8 -16 -25 -50 -30 -31 -36 -43 -27 -52 9 -9 20 -4 50 25 21 20 41 37 44 37 4
0 10 -16 14 -37 15 -78 -61 -147 -137 -124 -88 27 -108 135 -35 193 23 19 91
24 116 8z"/>
</g>
</svg>
